# xmcd
#
# Track frame offsets: 
#        150
#        19615
#        50946
#        84142
#        116828
#        147775
#        173171
#        195955
#
# Disc length: 2993 seconds
#
# Revision: 3
# Processed by: cddbd v1.5.2PL0 Copyright (c) Steve Scherf et al.
# Submitted via: ExactAudioCopy v0.99pb5
#
DISCID=610baf08
DTITLE=Harvie S with Kenny Barron - Now Was The Time
DYEAR=2008
DGENRE=Jazz
TTITLE0=Confirmation
TTITLE1=All or Nothing at All
TTITLE2=Body and Soul
TTITLE3=Take Your Time
TTITLE4=Darn That Dream
TTITLE5=Miyako
TTITLE6=Isn´t It Romantic?
TTITLE7=Chelsea Bridge
EXTD=YEAR: 2008
EXTT0=
EXTT1=
EXTT2=
EXTT3=
EXTT4=
EXTT5=
EXTT6=
EXTT7=
PLAYORDER=
